ISO-10303-21;
HEADER;
FILE_DESCRIPTION (( 'STEP AP214' ),
    '1' );
FILE_NAME ('0ZCH0110AF2E.STEP',
    '2026-04-02T15:06:55',
    ( '' ),
    ( '' ),
    'SwSTEP 2.0',
    'SolidWorks 2021',
    '' );
FILE_SCHEMA (( 'AUTOMOTIVE_DESIGN' ));
ENDSEC;

DATA;
#1 = ORIENTED_EDGE ( 'NONE', *, *, #615, .F. ) ;
#2 = DIRECTION ( 'NONE',  ( -1.000000000000000000, 0.000000000000000000, 0.000000000000000000 ) ) ;
#3 = CARTESIAN_POINT ( 'NONE',  ( -1.607499999999999929, 1.199999999999999956, 1.287500000000000089 ) ) ;
#4 = MECHANICAL_DESIGN_GEOMETRIC_PRESENTATION_REPRESENTATION (  '', ( #341 ), #796 ) ;
#5 = DIRECTION ( 'NONE',  ( 1.000000000000000000, 1.348929608069056975E-16, -0.000000000000000000 ) ) ;
#6 = EDGE_CURVE ( 'NONE', #804, #183, #107, .T. ) ;
#7 = CIRCLE ( 'NONE', #31, 0.4284090909090910726 ) ;
#8 = DIRECTION ( 'NONE',  ( 0.000000000000000000, -1.000000000000000000, 0.000000000000000000 ) ) ;
#9 = LINE ( 'NONE', #722, #253 ) ;
#10 = ORIENTED_EDGE ( 'NONE', *, *, #315, .T. ) ;
#11 =( NAMED_UNIT ( * ) PLANE_ANGLE_UNIT ( ) SI_UNIT ( $, .RADIAN. ) );
#12 = CARTESIAN_POINT ( 'NONE',  ( -0.8574999999999993738, 0.9999999999999995559, -1.287500000000000089 ) ) ;
#13 = ADVANCED_FACE ( 'NONE', ( #44 ), #560, .F. ) ;
#14 = LINE ( 'NONE', #73, #263 ) ;
#15 = SURFACE_SIDE_STYLE ('',( #133 ) ) ;
#16 = SURFACE_STYLE_FILL_AREA ( #332 ) ;
#17 = AXIS2_PLACEMENT_3D ( 'NONE', #471, #740, #161 ) ;
#18 = CARTESIAN_POINT ( 'NONE',  ( -1.760909090909090091, 0.000000000000000000, -8.673617379884030542E-16 ) ) ;
#19 = DIRECTION ( 'NONE',  ( 0.000000000000000000, -1.000000000000000000, 0.000000000000000000 ) ) ;
#20 = EDGE_CURVE ( 'NONE', #681, #756, #773, .T. ) ;
#21 = VERTEX_POINT ( 'NONE', #261 ) ;
#22 = FILL_AREA_STYLE_COLOUR ( '', #317 ) ;
#23 = DIRECTION ( 'NONE',  ( 0.000000000000000000, 0.000000000000000000, -1.000000000000000000 ) ) ;
#24 = FILL_AREA_STYLE ('',( #81 ) ) ;
#25 = ORIENTED_EDGE ( 'NONE', *, *, #791, .T. ) ;
#26 = DIRECTION ( 'NONE',  ( -1.000000000000000000, 0.000000000000000000, 0.000000000000000000 ) ) ;
#27 = EDGE_LOOP ( 'NONE', ( #304, #169, #41, #546 ) ) ;
#28 = EDGE_CURVE ( 'NONE', #383, #601, #649, .T. ) ;
#29 = AXIS2_PLACEMENT_3D ( 'NONE', #247, #497, #631 ) ;
#30 = FACE_OUTER_BOUND ( 'NONE', #242, .T. ) ;
#31 = AXIS2_PLACEMENT_3D ( 'NONE', #366, #294, #816 ) ;
#32 = ORIENTED_EDGE ( 'NONE', *, *, #178, .F. ) ;
#33 = DIRECTION ( 'NONE',  ( 0.000000000000000000, 0.000000000000000000, 1.000000000000000000 ) ) ;
#34 = ORIENTED_EDGE ( 'NONE', *, *, #776, .T. ) ;
#35 = CARTESIAN_POINT ( 'NONE',  ( 1.107499999999999929, 4.439112532778074716, -1.287500000000000089 ) ) ;
#36 = ORIENTED_EDGE ( 'NONE', *, *, #486, .F. ) ;
#37 = LINE ( 'NONE', #818, #301 ) ;
#38 = LINE ( 'NONE', #298, #783 ) ;
#39 = AXIS2_PLACEMENT_3D ( 'NONE', #229, #243, #822 ) ;
#40 = VECTOR ( 'NONE', #225, 1000.000000000000000 ) ;
#41 = ORIENTED_EDGE ( 'NONE', *, *, #529, .T. ) ;
#42 = ADVANCED_FACE ( 'NONE', ( #392 ), #563, .F. ) ;
#43 = DIRECTION ( 'NONE',  ( 1.000000000000000000, 0.000000000000000000, 0.000000000000000000 ) ) ;
#44 = FACE_OUTER_BOUND ( 'NONE', #167, .T. ) ;
#45 = CARTESIAN_POINT ( 'NONE',  ( 1.607499999999999929, 1.000000000000000000, -1.287500000000000089 ) ) ;
#46 = ORIENTED_EDGE ( 'NONE', *, *, #202, .F. ) ;
#47 = PLANE ( 'NONE',  #797 ) ;
#48 = DIRECTION ( 'NONE',  ( 0.000000000000000000, -1.000000000000000000, 0.000000000000000000 ) ) ;
#49 = DIRECTION ( 'NONE',  ( 0.000000000000000000, -1.000000000000000000, 0.000000000000000000 ) ) ;
#50 = ORIENTED_EDGE ( 'NONE', *, *, #20, .F. ) ;
#51 = LINE ( 'NONE', #361, #447 ) ;
#52 = EDGE_LOOP ( 'NONE', ( #321, #149, #801, #59 ) ) ;
#53 = EDGE_CURVE ( 'NONE', #313, #752, #489, .T. ) ;
#54 = ORIENTED_EDGE ( 'NONE', *, *, #53, .T. ) ;
#55 = PRESENTATION_LAYER_ASSIGNMENT (  '', '', ( #769 ) ) ;
#56 = CLOSED_SHELL ( 'NONE', ( #134, #548, #538, #322, #141, #481 ) ) ;
#57 = AXIS2_PLACEMENT_3D ( 'NONE', #784, #67, #774 ) ;
#58 = DIRECTION ( 'NONE',  ( -0.000000000000000000, -0.000000000000000000, 1.000000000000000000 ) ) ;
#59 = ORIENTED_EDGE ( 'NONE', *, *, #664, .T. ) ;
#60 = ORIENTED_EDGE ( 'NONE', *, *, #748, .F. ) ;
#61 = CYLINDRICAL_SURFACE ( 'NONE', #356, 0.4284090909090910171 ) ;
#62 = ADVANCED_FACE ( 'NONE', ( #747 ), #47, .F. ) ;
#63 = DIRECTION ( 'NONE',  ( 0.000000000000000000, -1.000000000000000000, 0.000000000000000000 ) ) ;
#64 = EDGE_CURVE ( 'NONE', #469, #156, #559, .T. ) ;
#65 = DIRECTION ( 'NONE',  ( 9.773090005503129977E-16, 0.000000000000000000, 1.000000000000000000 ) ) ;
#66 = DIRECTION ( 'NONE',  ( 0.000000000000000000, 0.000000000000000000, -1.000000000000000000 ) ) ;
#67 = DIRECTION ( 'NONE',  ( 0.000000000000000000, 0.000000000000000000, 1.000000000000000000 ) ) ;
#68 = DIRECTION ( 'NONE',  ( 0.000000000000000000, 0.000000000000000000, -1.000000000000000000 ) ) ;
#69 = ORIENTED_EDGE ( 'NONE', *, *, #486, .T. ) ;
#70 = AXIS2_PLACEMENT_3D ( 'NONE', #744, #428, #507 ) ;
#71 = SURFACE_STYLE_USAGE ( .BOTH. , #77 ) ;
#72 = VECTOR ( 'NONE', #5, 1000.000000000000000 ) ;
#73 = CARTESIAN_POINT ( 'NONE',  ( -0.8574999999999999289, 3.787107458147035199, 1.287500000000000089 ) ) ;
#74 = PLANE ( 'NONE',  #398 ) ;
#75 = ORIENTED_EDGE ( 'NONE', *, *, #385, .F. ) ;
#76 = EDGE_CURVE ( 'NONE', #824, #217, #753, .T. ) ;
#77 = SURFACE_SIDE_STYLE ('',( #16 ) ) ;
#78 = DIRECTION ( 'NONE',  ( 0.000000000000000000, -1.000000000000000000, 0.000000000000000000 ) ) ;
#79 = CARTESIAN_POINT ( 'NONE',  ( -0.8574999999999999289, 3.787107458147035199, -1.287500000000000089 ) ) ;
#80 = PLANE ( 'NONE',  #57 ) ;
#81 = FILL_AREA_STYLE_COLOUR ( '', #272 ) ;
#82 = ORIENTED_EDGE ( 'NONE', *, *, #600, .T. ) ;
#83 = VECTOR ( 'NONE', #771, 1000.000000000000000 ) ;
#84 = AXIS2_PLACEMENT_3D ( 'NONE', #612, #735, #292 ) ;
#85 = PLANE ( 'NONE',  #86 ) ;
#86 = AXIS2_PLACEMENT_3D ( 'NONE', #210, #327, #302 ) ;
#87 = CARTESIAN_POINT ( 'NONE',  ( 1.607499999999999929, 1.000000000000000000, 1.287500000000000089 ) ) ;
#88 = SURFACE_SIDE_STYLE ('',( #785 ) ) ;
#89 = ORIENTED_EDGE ( 'NONE', *, *, #776, .F. ) ;
#90 = SURFACE_SIDE_STYLE ('',( #466 ) ) ;
#91 = LINE ( 'NONE', #285, #653 ) ;
#92 = EDGE_CURVE ( 'NONE', #496, #353, #37, .T. ) ;
#93 = VERTEX_POINT ( 'NONE', #694 ) ;
#94 = CARTESIAN_POINT ( 'NONE',  ( -0.8574999999999999289, 0.000000000000000000, 1.287500000000000089 ) ) ;
#95 = EDGE_LOOP ( 'NONE', ( #668, #316, #443, #723 ) ) ;
#96 = FACE_OUTER_BOUND ( 'NONE', #52, .T. ) ;
#97 = FACE_OUTER_BOUND ( 'NONE', #154, .T. ) ;
#98 = PRESENTATION_LAYER_ASSIGNMENT (  '', '', ( #678 ) ) ;
#99 = VERTEX_POINT ( 'NONE', #112 ) ;
#100 = DIRECTION ( 'NONE',  ( 1.000000000000000000, 0.000000000000000000, 4.336808689942025132E-16 ) ) ;
#101 = EDGE_LOOP ( 'NONE', ( #506, #384, #650, #82 ) ) ;
#102 = DIRECTION ( 'NONE',  ( 0.000000000000000000, -1.000000000000000000, 0.000000000000000000 ) ) ;
#103 = DIRECTION ( 'NONE',  ( 0.000000000000000000, -1.000000000000000000, 0.000000000000000000 ) ) ;
#104 = EDGE_CURVE ( 'NONE', #824, #484, #381, .T. ) ;
#105 = ORIENTED_EDGE ( 'NONE', *, *, #702, .T. ) ;
#106 = CARTESIAN_POINT ( 'NONE',  ( 1.107499999999999929, 0.000000000000000000, 1.287500000000000089 ) ) ;
#107 = LINE ( 'NONE', #369, #343 ) ;
#108 = CARTESIAN_POINT ( 'NONE',  ( -1.607499999999999929, 1.199999999999999956, -0.4000000000000000222 ) ) ;
#109 = AXIS2_PLACEMENT_3D ( 'NONE', #819, #2, #192 ) ;
#110 = AXIS2_PLACEMENT_3D ( 'NONE', #474, #421, #532 ) ;
#111 = ORIENTED_EDGE ( 'NONE', *, *, #529, .F. ) ;
#112 = CARTESIAN_POINT ( 'NONE',  ( 1.107499999999999929, 0.000000000000000000, 1.287500000000000089 ) ) ;
#113 = EDGE_LOOP ( 'NONE', ( #89, #432, #663, #572 ) ) ;
#114 = DIRECTION ( 'NONE',  ( 0.000000000000000000, -1.000000000000000000, 0.000000000000000000 ) ) ;
#115 = ORIENTED_EDGE ( 'NONE', *, *, #431, .F. ) ;
#116 = EDGE_CURVE ( 'NONE', #749, #404, #300, .T. ) ;
#117 = CARTESIAN_POINT ( 'NONE',  ( 1.607499999999999929, 1.000000000000000000, -1.287500000000000089 ) ) ;
#118 = ORIENTED_EDGE ( 'NONE', *, *, #64, .T. ) ;
#119 = DIRECTION ( 'NONE',  ( 0.000000000000000000, -1.000000000000000000, 0.000000000000000000 ) ) ;
#120 = ORIENTED_EDGE ( 'NONE', *, *, #193, .T. ) ;
#121 = EDGE_LOOP ( 'NONE', ( #111, #50, #25, #830 ) ) ;
#122 = CARTESIAN_POINT ( 'NONE',  ( -1.607499999999999929, 0.9999999999999995559, -1.287500000000000089 ) ) ;
#123 =( GEOMETRIC_REPRESENTATION_CONTEXT ( 3 ) GLOBAL_UNCERTAINTY_ASSIGNED_CONTEXT ( ( #362 ) ) GLOBAL_UNIT_ASSIGNED_CONTEXT ( ( #281, #719, #462 ) ) REPRESENTATION_CONTEXT ( 'NONE', 'WORKASPACE' ) );
#124 = VECTOR ( 'NONE', #58, 1000.000000000000000 ) ;
#125 = EDGE_CURVE ( 'NONE', #220, #617, #131, .T. ) ;
#126 = EDGE_LOOP ( 'NONE', ( #558, #671, #69, #636 ) ) ;
#127 =( LENGTH_UNIT ( ) NAMED_UNIT ( * ) SI_UNIT ( .MILLI., .METRE. ) );
#128 = LINE ( 'NONE', #580, #743 ) ;
#129 = LINE ( 'NONE', #557, #730 ) ;
#130 = PRESENTATION_STYLE_ASSIGNMENT (( #468 ) ) ;
#131 = LINE ( 'NONE', #630, #407 ) ;
#132 = DIRECTION ( 'NONE',  ( 0.000000000000000000, -1.000000000000000000, 0.000000000000000000 ) ) ;
#133 = SURFACE_STYLE_FILL_AREA ( #24 ) ;
#134 = ADVANCED_FACE ( 'NONE', ( #554 ), #168, .T. ) ;
#135 = ORIENTED_EDGE ( 'NONE', *, *, #589, .F. ) ;
#136 = CLOSED_SHELL ( 'NONE', ( #629, #455, #713, #690, #823, #257, #739, #763 ) ) ;
#137 = VECTOR ( 'NONE', #33, 1000.000000000000000 ) ;
#138 = DIRECTION ( 'NONE',  ( 1.000000000000000000, 0.000000000000000000, 0.000000000000000000 ) ) ;
#139 = CARTESIAN_POINT ( 'NONE',  ( 1.607499999999999929, 1.199999999999999956, 1.287500000000000089 ) ) ;
#140 = ORIENTED_EDGE ( 'NONE', *, *, #20, .T. ) ;
#141 = ADVANCED_FACE ( 'NONE', ( #634 ), #488, .F. ) ;
#142 = DIRECTION ( 'NONE',  ( 1.000000000000000000, 0.000000000000000000, 0.000000000000000000 ) ) ;
#143 = LINE ( 'NONE', #528, #203 ) ;
#144 = PRODUCT ( '0ZCH0110AF2E', '0ZCH0110AF2E', '', ( #493 ) ) ;
#145 = VERTEX_POINT ( 'NONE', #424 ) ;
#146 = CARTESIAN_POINT ( 'NONE',  ( 1.607499999999999929, 1.000000000000000000, -1.287500000000000089 ) ) ;
#147 =( NAMED_UNIT ( * ) SI_UNIT ( $, .STERADIAN. ) SOLID_ANGLE_UNIT ( ) );
#148 = DIRECTION ( 'NONE',  ( 0.000000000000000000, 0.000000000000000000, 1.000000000000000000 ) ) ;
#149 = ORIENTED_EDGE ( 'NONE', *, *, #355, .T. ) ;
#150 =( NAMED_UNIT ( * ) SI_UNIT ( $, .STERADIAN. ) SOLID_ANGLE_UNIT ( ) );
#151 = VECTOR ( 'NONE', #599, 1000.000000000000000 ) ;
#152 = CARTESIAN_POINT ( 'NONE',  ( -1.607499999999999929, 0.000000000000000000, -0.4000000000000000222 ) ) ;
#153 = EDGE_CURVE ( 'NONE', #93, #220, #623, .T. ) ;
#154 = EDGE_LOOP ( 'NONE', ( #213, #286, #120, #255 ) ) ;
#155 = CARTESIAN_POINT ( 'NONE',  ( -0.8574999999999999289, 0.000000000000000000, 1.287500000000000089 ) ) ;
#156 = VERTEX_POINT ( 'NONE', #682 ) ;
#157 = DIRECTION ( 'NONE',  ( 0.000000000000000000, 0.000000000000000000, 1.000000000000000000 ) ) ;
#158 = EDGE_CURVE ( 'NONE', #21, #353, #195, .T. ) ;
#159 = VERTEX_POINT ( 'NONE', #251 ) ;
#160 = CLOSED_SHELL ( 'NONE', ( #706, #463, #444, #454, #330, #540 ) ) ;
#161 = DIRECTION ( 'NONE',  ( 0.000000000000000000, -1.000000000000000000, 0.000000000000000000 ) ) ;
#162 = VECTOR ( 'NONE', #377, 1000.000000000000000 ) ;
#163 = VERTEX_POINT ( 'NONE', #503 ) ;
#164 = CARTESIAN_POINT ( 'NONE',  ( 1.107499999999999929, 0.000000000000000000, -1.287500000000000089 ) ) ;
#165 = EDGE_CURVE ( 'NONE', #217, #756, #51, .T. ) ;
#166 = CARTESIAN_POINT ( 'NONE',  ( -1.107499999999999929, 1.199999999999999956, -1.287500000000000089 ) ) ;
#167 = EDGE_LOOP ( 'NONE', ( #633, #695, #180, #510 ) ) ;
#168 = PLANE ( 'NONE',  #39 ) ;
#169 = ORIENTED_EDGE ( 'NONE', *, *, #165, .T. ) ;
#170 = CARTESIAN_POINT ( 'NONE',  ( 1.607499999999999929, 1.000000000000000000, -1.287500000000000089 ) ) ;
#171 = ORIENTED_EDGE ( 'NONE', *, *, #153, .F. ) ;
#172 = DIRECTION ( 'NONE',  ( 1.348929608069056975E-16, -1.000000000000000000, 0.000000000000000000 ) ) ;
#173 = EDGE_LOOP ( 'NONE', ( #543, #118, #500, #742 ) ) ;
#174 = DIRECTION ( 'NONE',  ( 0.000000000000000000, 0.000000000000000000, -1.000000000000000000 ) ) ;
#175 = VECTOR ( 'NONE', #199, 1000.000000000000000 ) ;
#176 = CARTESIAN_POINT ( 'NONE',  ( 1.607499999999999929, 1.199999999999999956, -0.4000000000000000222 ) ) ;
#177 = VECTOR ( 'NONE', #569, 1000.000000000000000 ) ;
#178 = EDGE_CURVE ( 'NONE', #502, #597, #314, .T. ) ;
#179 = VECTOR ( 'NONE', #78, 1000.000000000000000 ) ;
#180 = ORIENTED_EDGE ( 'NONE', *, *, #185, .T. ) ;
#181 = DIRECTION ( 'NONE',  ( 0.000000000000000000, 0.000000000000000000, 1.000000000000000000 ) ) ;
#182 = LINE ( 'NONE', #700, #477 ) ;
#183 = VERTEX_POINT ( 'NONE', #237 ) ;
#184 = ORIENTED_EDGE ( 'NONE', *, *, #564, .F. ) ;
#185 = EDGE_CURVE ( 'NONE', #692, #295, #494, .T. ) ;
#186 = ORIENTED_EDGE ( 'NONE', *, *, #284, .T. ) ;
#187 = CARTESIAN_POINT ( 'NONE',  ( 1.607499999999999929, 1.000000000000000000, 1.287500000000000089 ) ) ;
#188 = DIRECTION ( 'NONE',  ( -0.000000000000000000, -0.000000000000000000, 1.000000000000000000 ) ) ;
#189 = VECTOR ( 'NONE', #442, 1000.000000000000000 ) ;
#190 = VECTOR ( 'NONE', #66, 1000.000000000000000 ) ;
#191 = DIRECTION ( 'NONE',  ( 0.000000000000000000, 0.000000000000000000, -1.000000000000000000 ) ) ;
#192 = DIRECTION ( 'NONE',  ( 0.000000000000000000, 0.000000000000000000, 1.000000000000000000 ) ) ;
#193 = EDGE_CURVE ( 'NONE', #469, #99, #9, .T. ) ;
#194 = CARTESIAN_POINT ( 'NONE',  ( 1.607499999999999929, 1.000000000000000000, -1.287500000000000089 ) ) ;
#195 = LINE ( 'NONE', #698, #810 ) ;
#196 = DIRECTION ( 'NONE',  ( -9.773090005503139838E-16, 0.000000000000000000, 1.000000000000000000 ) ) ;
#197 = CARTESIAN_POINT ( 'NONE',  ( -1.107499999999999929, 0.000000000000000000, -1.287500000000000089 ) ) ;
#198 = FILL_AREA_STYLE_COLOUR ( '', #287 ) ;
#199 = DIRECTION ( 'NONE',  ( 0.000000000000000000, -1.000000000000000000, 0.000000000000000000 ) ) ;
#200 = SURFACE_SIDE_STYLE ('',( #337 ) ) ;
#201 = DIRECTION ( 'NONE',  ( 0.000000000000000000, 0.000000000000000000, 1.000000000000000000 ) ) ;
#202 = EDGE_CURVE ( 'NONE', #295, #313, #143, .T. ) ;
#203 = VECTOR ( 'NONE', #588, 1000.000000000000000 ) ;
#204 = DIRECTION ( 'NONE',  ( 0.000000000000000000, 0.000000000000000000, 1.000000000000000000 ) ) ;
#205 = VECTOR ( 'NONE', #216, 1000.000000000000000 ) ;
#206 = CARTESIAN_POINT ( 'NONE',  ( 1.107500000000000151, 1.000000000000000000, -1.287500000000000089 ) ) ;
#207 = DIRECTION ( 'NONE',  ( 1.000000000000000000, 1.348929608069056975E-16, -0.000000000000000000 ) ) ;
#208 = ORIENTED_EDGE ( 'NONE', *, *, #495, .F. ) ;
#209 = FILL_AREA_STYLE_COLOUR ( '', #704 ) ;
#210 = CARTESIAN_POINT ( 'NONE',  ( -0.8574999999999999289, 4.439112532778074716, 1.287500000000000089 ) ) ;
#211 = CARTESIAN_POINT ( 'NONE',  ( -1.107499999999999929, 0.9999999999999995559, -1.287500000000000089 ) ) ;
#212 = DIRECTION ( 'NONE',  ( 0.000000000000000000, -1.000000000000000000, 0.000000000000000000 ) ) ;
#213 = ORIENTED_EDGE ( 'NONE', *, *, #185, .F. ) ;
#214 = PRODUCT_RELATED_PRODUCT_CATEGORY ( 'part', '', ( #144 ) ) ;
#215 = LINE ( 'NONE', #729, #812 ) ;
#216 = DIRECTION ( 'NONE',  ( 0.000000000000000000, 0.000000000000000000, -1.000000000000000000 ) ) ;
#217 = VERTEX_POINT ( 'NONE', #12 ) ;
#218 = VECTOR ( 'NONE', #512, 1000.000000000000000 ) ;
#219 = PLANE ( 'NONE',  #84 ) ;
#220 = VERTEX_POINT ( 'NONE', #340 ) ;
#221 = PLANE ( 'NONE',  #609 ) ;
#222 = EDGE_CURVE ( 'NONE', #145, #827, #533, .T. ) ;
#223 = FACE_OUTER_BOUND ( 'NONE', #487, .T. ) ;
#224 = VERTEX_POINT ( 'NONE', #662 ) ;
#225 = DIRECTION ( 'NONE',  ( 1.000000000000000000, 0.000000000000000000, 0.000000000000000000 ) ) ;
#226 = LINE ( 'NONE', #249, #162 ) ;
#227 = ORIENTED_EDGE ( 'NONE', *, *, #347, .F. ) ;
#228 = EDGE_CURVE ( 'NONE', #404, #767, #403, .T. ) ;
#229 = CARTESIAN_POINT ( 'NONE',  ( 0.000000000000000000, 0.000000000000000000, 0.000000000000000000 ) ) ;
#230 = DIRECTION ( 'NONE',  ( 1.000000000000000000, 0.000000000000000000, 0.000000000000000000 ) ) ;
#231 =( GEOMETRIC_REPRESENTATION_CONTEXT ( 3 ) GLOBAL_UNCERTAINTY_ASSIGNED_CONTEXT ( ( #467 ) ) GLOBAL_UNIT_ASSIGNED_CONTEXT ( ( #349, #11, #344 ) ) REPRESENTATION_CONTEXT ( 'NONE', 'WORKASPACE' ) );
#232 = VECTOR ( 'NONE', #710, 1000.000000000000000 ) ;
#233 = MANIFOLD_SOLID_BREP ( 'NONE', #136 ) ;
#234 = FACE_OUTER_BOUND ( 'NONE', #299, .T. ) ;
#235 = AXIS2_PLACEMENT_3D ( 'NONE', #194, #270, #657 ) ;
#236 = ORIENTED_EDGE ( 'NONE', *, *, #365, .F. ) ;
#237 = CARTESIAN_POINT ( 'NONE',  ( -1.607499999999999929, 0.000000000000000000, 0.4000000000000000222 ) ) ;
#238 = UNCERTAINTY_MEASURE_WITH_UNIT (LENGTH_MEASURE( 1.000000000000000082E-05 ), #794, 'distance_accuracy_value', 'NONE');
#239 = ORIENTED_EDGE ( 'NONE', *, *, #385, .T. ) ;
#240 = FACE_OUTER_BOUND ( 'NONE', #504, .T. ) ;
#241 = APPLICATION_CONTEXT ( 'automotive_design' ) ;
#242 = EDGE_LOOP ( 'NONE', ( #227, #250, #382, #245, #736, #738 ) ) ;
#243 = DIRECTION ( 'NONE',  ( 0.000000000000000000, -1.000000000000000000, 0.000000000000000000 ) ) ;
#244 = EDGE_CURVE ( 'NONE', #465, #313, #522, .T. ) ;
#245 = ORIENTED_EDGE ( 'NONE', *, *, #611, .F. ) ;
#246 = MANIFOLD_SOLID_BREP ( 'NONE', #56 ) ;
#247 = CARTESIAN_POINT ( 'NONE',  ( 1.607499999999999929, 1.000000000000000000, -1.287500000000000089 ) ) ;
#248 = LINE ( 'NONE', #176, #490 ) ;
#249 = CARTESIAN_POINT ( 'NONE',  ( -1.107499999999999929, 0.000000000000000000, -1.287500000000000089 ) ) ;
#250 = ORIENTED_EDGE ( 'NONE', *, *, #702, .F. ) ;
#251 = CARTESIAN_POINT ( 'NONE',  ( -0.8574999999999999289, 0.9999999999999995559, -1.287500000000000089 ) ) ;
#252 = DIRECTION ( 'NONE',  ( 1.000000000000000000, 0.000000000000000000, -4.336808689942025132E-16 ) ) ;
#253 = VECTOR ( 'NONE', #212, 1000.000000000000000 ) ;
#254 = AXIS2_PLACEMENT_3D ( 'NONE', #108, #491, #196 ) ;
#255 = ORIENTED_EDGE ( 'NONE', *, *, #748, .T. ) ;
#256 = DIRECTION ( 'NONE',  ( 1.000000000000000000, 1.348929608069056975E-16, 0.000000000000000000 ) ) ;
#257 = ADVANCED_FACE ( 'NONE', ( #396 ), #74, .F. ) ;
#258 = ORIENTED_EDGE ( 'NONE', *, *, #627, .F. ) ;
#259 = LINE ( 'NONE', #456, #464 ) ;
#260 = ORIENTED_EDGE ( 'NONE', *, *, #415, .T. ) ;
#261 = CARTESIAN_POINT ( 'NONE',  ( -1.607499999999999929, 0.9999999999999995559, -1.287500000000000089 ) ) ;
#262 = CARTESIAN_POINT ( 'NONE',  ( 1.107499999999999929, 1.199999999999999956, -1.287500000000000089 ) ) ;
#263 = VECTOR ( 'NONE', #579, 1000.000000000000000 ) ;
#264 = DIRECTION ( 'NONE',  ( 1.000000000000000000, 1.348929608069056975E-16, -0.000000000000000000 ) ) ;
#265 = UNCERTAINTY_MEASURE_WITH_UNIT (LENGTH_MEASURE( 1.000000000000000082E-05 ), #127, 'distance_accuracy_value', 'NONE');
#266 = DIRECTION ( 'NONE',  ( -9.773090005503129977E-16, 0.000000000000000000, -1.000000000000000000 ) ) ;
#267 = ORIENTED_EDGE ( 'NONE', *, *, #6, .T. ) ;
#268 = FACE_OUTER_BOUND ( 'NONE', #113, .T. ) ;
#269 = CARTESIAN_POINT ( 'NONE',  ( -0.8574999999999999289, 0.000000000000000000, -1.287500000000000089 ) ) ;
#270 = DIRECTION ( 'NONE',  ( 1.348929608069056975E-16, -1.000000000000000000, 0.000000000000000000 ) ) ;
#271 =( NAMED_UNIT ( * ) PLANE_ANGLE_UNIT ( ) SI_UNIT ( $, .RADIAN. ) );
#272 = COLOUR_RGB ( '',0.7921568627450980005, 0.8196078431372548767, 0.9333333333333333481 ) ;
#273 = CARTESIAN_POINT ( 'NONE',  ( -1.107499999999999041, 0.9999999999999995559, 1.287500000000000089 ) ) ;
#274 = AXIS2_PLACEMENT_3D ( 'NONE', #3, #644, #266 ) ;
#275 = CARTESIAN_POINT ( 'NONE',  ( -1.607499999999999929, 0.000000000000000000, 1.287500000000000089 ) ) ;
#276 = PRESENTATION_STYLE_ASSIGNMENT (( #585 ) ) ;
#277 = EDGE_CURVE ( 'NONE', #217, #617, #658, .T. ) ;
#278 = EDGE_LOOP ( 'NONE', ( #36, #537, #34, #342 ) ) ;
#279 =( NAMED_UNIT ( * ) PLANE_ANGLE_UNIT ( ) SI_UNIT ( $, .RADIAN. ) );
#280 = LINE ( 'NONE', #87, #732 ) ;
#281 =( LENGTH_UNIT ( ) NAMED_UNIT ( * ) SI_UNIT ( .MILLI., .METRE. ) );
#282 = ORIENTED_EDGE ( 'NONE', *, *, #76, .T. ) ;
#283 = PRESENTATION_STYLE_ASSIGNMENT (( #71 ) ) ;
#284 = EDGE_CURVE ( 'NONE', #163, #752, #248, .T. ) ;
#285 = CARTESIAN_POINT ( 'NONE',  ( 1.607499999999999929, 1.000000000000000000, -1.287500000000000089 ) ) ;
#286 = ORIENTED_EDGE ( 'NONE', *, *, #293, .F. ) ;
#287 = COLOUR_RGB ( '',0.000000000000000000, 0.5019607843137254832, 0.000000000000000000 ) ;
#288 = AXIS2_PLACEMENT_3D ( 'NONE', #303, #647, #191 ) ;
#289 = PLANE ( 'NONE',  #110 ) ;
#290 = PLANE ( 'NONE',  #666 ) ;
#291 = ORIENTED_EDGE ( 'NONE', *, *, #222, .F. ) ;
#292 = DIRECTION ( 'NONE',  ( 1.000000000000000000, 0.000000000000000000, 0.000000000000000000 ) ) ;
#293 = EDGE_CURVE ( 'NONE', #469, #692, #635, .T. ) ;
#294 = DIRECTION ( 'NONE',  ( -1.348929608069056975E-16, 1.000000000000000000, -0.000000000000000000 ) ) ;
#295 = VERTEX_POINT ( 'NONE', #376 ) ;
#296 = FACE_OUTER_BOUND ( 'NONE', #121, .T. ) ;
#297 = PLANE ( 'NONE',  #437 ) ;
#298 = CARTESIAN_POINT ( 'NONE',  ( -1.607499999999999929, 1.199999999999999956, -0.4000000000000000222 ) ) ;
#299 = EDGE_LOOP ( 'NONE', ( #260, #734, #360, #746, #473, #445 ) ) ;
#300 = LINE ( 'NONE', #106, #770 ) ;
#301 = VECTOR ( 'NONE', #457, 1000.000000000000000 ) ;
#302 = DIRECTION ( 'NONE',  ( 0.000000000000000000, -1.000000000000000000, 0.000000000000000000 ) ) ;
#303 = CARTESIAN_POINT ( 'NONE',  ( -1.760909090909090091, 0.000000000000000000, -8.673617379884030542E-16 ) ) ;
#304 = ORIENTED_EDGE ( 'NONE', *, *, #277, .F. ) ;
#305 = ADVANCED_FACE ( 'NONE', ( #643 ), #61, .F. ) ;
#306 = DIRECTION ( 'NONE',  ( 0.000000000000000000, -1.000000000000000000, 0.000000000000000000 ) ) ;
#307 = CARTESIAN_POINT ( 'NONE',  ( -1.607499999999999929, 0.000000000000000000, 1.287500000000000089 ) ) ;
#308 = ORIENTED_EDGE ( 'NONE', *, *, #711, .T. ) ;
#309 = DIRECTION ( 'NONE',  ( 0.000000000000000000, 0.000000000000000000, -1.000000000000000000 ) ) ;
#310 = ORIENTED_EDGE ( 'NONE', *, *, #347, .T. ) ;
#311 = DIRECTION ( 'NONE',  ( 0.000000000000000000, 0.000000000000000000, -1.000000000000000000 ) ) ;
#312 = CARTESIAN_POINT ( 'NONE',  ( 1.607499999999999929, 0.000000000000000000, 0.4000000000000000222 ) ) ;
#313 = VERTEX_POINT ( 'NONE', #312 ) ;
#314 = LINE ( 'NONE', #813, #232 ) ;
#315 = EDGE_CURVE ( 'NONE', #224, #496, #826, .T. ) ;
#316 = ORIENTED_EDGE ( 'NONE', *, *, #639, .T. ) ;
#317 = COLOUR_RGB ( '',0.7921568627450980005, 0.8196078431372548767, 0.9333333333333333481 ) ;
#318 = DIRECTION ( 'NONE',  ( 0.000000000000000000, 0.000000000000000000, -1.000000000000000000 ) ) ;
#319 = CLOSED_SHELL ( 'NONE', ( #364, #42, #305, #13, #566, #479, #777, #62 ) ) ;
#320 = AXIS2_PLACEMENT_3D ( 'NONE', #798, #26, #485 ) ;
#321 = ORIENTED_EDGE ( 'NONE', *, *, #791, .F. ) ;
#322 = ADVANCED_FACE ( 'NONE', ( #660 ), #85, .F. ) ;
#323 = EDGE_LOOP ( 'NONE', ( #135, #331, #186, #806 ) ) ;
#324 = ORIENTED_EDGE ( 'NONE', *, *, #28, .F. ) ;
#325 = DIRECTION ( 'NONE',  ( 0.000000000000000000, -1.000000000000000000, 0.000000000000000000 ) ) ;
#326 = CARTESIAN_POINT ( 'NONE',  ( 1.107499999999999929, 1.199999999999999956, -1.287500000000000089 ) ) ;
#327 = DIRECTION ( 'NONE',  ( 0.000000000000000000, 0.000000000000000000, -1.000000000000000000 ) ) ;
#328 = LINE ( 'NONE', #768, #179 ) ;
#329 = VECTOR ( 'NONE', #673, 1000.000000000000000 ) ;
#330 = ADVANCED_FACE ( 'NONE', ( #96 ), #297, .F. ) ;
#331 = ORIENTED_EDGE ( 'NONE', *, *, #470, .T. ) ;
#332 = FILL_AREA_STYLE ('',( #209 ) ) ;
#333 = PRODUCT_DEFINITION_CONTEXT ( 'detailed design', #799, 'design' ) ;
#334 = FACE_OUTER_BOUND ( 'NONE', #27, .T. ) ;
#335 = CARTESIAN_POINT ( 'NONE',  ( -1.107499999999999929, 1.199999999999999956, -1.287500000000000089 ) ) ;
#336 = PLANE ( 'NONE',  #594 ) ;
#337 = SURFACE_STYLE_FILL_AREA ( #648 ) ;
#338 = DIRECTION ( 'NONE',  ( 0.000000000000000000, -1.000000000000000000, 0.000000000000000000 ) ) ;
#339 = LINE ( 'NONE', #670, #151 ) ;
#340 = CARTESIAN_POINT ( 'NONE',  ( -0.8574999999999999289, 0.000000000000000000, 1.287500000000000089 ) ) ;
#341 = STYLED_ITEM ( 'NONE', ( #283 ), #795 ) ;
#342 = ORIENTED_EDGE ( 'NONE', *, *, #228, .T. ) ;
#343 = VECTOR ( 'NONE', #625, 1000.000000000000000 ) ;
#344 =( NAMED_UNIT ( * ) SI_UNIT ( $, .STERADIAN. ) SOLID_ANGLE_UNIT ( ) );
#345 = LINE ( 'NONE', #737, #583 ) ;
#346 = SURFACE_STYLE_USAGE ( .BOTH. , #88 ) ;
#347 = EDGE_CURVE ( 'NONE', #613, #224, #215, .T. ) ;
#348 = ORIENTED_EDGE ( 'NONE', *, *, #524, .F. ) ;
#349 =( LENGTH_UNIT ( ) NAMED_UNIT ( * ) SI_UNIT ( .MILLI., .METRE. ) );
#350 = CARTESIAN_POINT ( 'NONE',  ( -0.8574999999999999289, 0.000000000000000000, 1.287500000000000089 ) ) ;
#351 = ORIENTED_EDGE ( 'NONE', *, *, #28, .T. ) ;
#352 = CARTESIAN_POINT ( 'NONE',  ( -1.107499999999999041, 0.9999999999999995559, -1.287500000000000089 ) ) ;
#353 = VERTEX_POINT ( 'NONE', #669 ) ;
#354 = VECTOR ( 'NONE', #578, 1000.000000000000000 ) ;
#355 = EDGE_CURVE ( 'NONE', #681, #824, #684, .T. ) ;
#356 = AXIS2_PLACEMENT_3D ( 'NONE', #632, #49, #318 ) ;
#357 = CARTESIAN_POINT ( 'NONE',  ( 1.107499999999999929, 1.000000000000000000, 1.287500000000000089 ) ) ;
#358 = EDGE_LOOP ( 'NONE', ( #208, #422, #401, #351 ) ) ;
#359 = CARTESIAN_POINT ( 'NONE',  ( -1.607499999999999929, 1.199999999999999956, 1.287500000000000089 ) ) ;
#360 = ORIENTED_EDGE ( 'NONE', *, *, #602, .F. ) ;
#361 = CARTESIAN_POINT ( 'NONE',  ( -0.8574999999999999289, 0.9999999999999995559, 1.287500000000000089 ) ) ;
#362 = UNCERTAINTY_MEASURE_WITH_UNIT (LENGTH_MEASURE( 1.000000000000000082E-05 ), #281, 'distance_accuracy_value', 'NONE');
#363 = FACE_OUTER_BOUND ( 'NONE', #787, .T. ) ;
#364 = ADVANCED_FACE ( 'NONE', ( #223 ), #290, .F. ) ;
#365 = EDGE_CURVE ( 'NONE', #163, #465, #7, .T. ) ;
#366 = CARTESIAN_POINT ( 'NONE',  ( 1.760909090909090091, 1.000000000000000000, 0.000000000000000000 ) ) ;
#367 = ORIENTED_EDGE ( 'NONE', *, *, #165, .F. ) ;
#368 = CARTESIAN_POINT ( 'NONE',  ( -1.107499999999999929, 3.787107458147035199, -1.287500000000000089 ) ) ;
#369 = CARTESIAN_POINT ( 'NONE',  ( -1.607499999999999929, 1.199999999999999956, 0.4000000000000000222 ) ) ;
#370 =( GEOMETRIC_REPRESENTATION_CONTEXT ( 3 ) GLOBAL_UNCERTAINTY_ASSIGNED_CONTEXT ( ( #265 ) ) GLOBAL_UNIT_ASSIGNED_CONTEXT ( ( #127, #654, #717 ) ) REPRESENTATION_CONTEXT ( 'NONE', 'WORKASPACE' ) );
#371 = CARTESIAN_POINT ( 'NONE',  ( 1.607499999999999929, 0.000000000000000000, -0.4000000000000000222 ) ) ;
#372 = DIRECTION ( 'NONE',  ( -0.000000000000000000, 1.000000000000000000, 0.000000000000000000 ) ) ;
#373 = ORIENTED_EDGE ( 'NONE', *, *, #611, .T. ) ;
#374 = DIRECTION ( 'NONE',  ( 0.000000000000000000, 0.000000000000000000, -1.000000000000000000 ) ) ;
#375 = DIRECTION ( 'NONE',  ( 0.000000000000000000, 0.000000000000000000, -1.000000000000000000 ) ) ;
#376 = CARTESIAN_POINT ( 'NONE',  ( 1.607499999999999929, 0.000000000000000000, 1.287500000000000089 ) ) ;
#377 = DIRECTION ( 'NONE',  ( -1.000000000000000000, 0.000000000000000000, 0.000000000000000000 ) ) ;
#378 = VERTEX_POINT ( 'NONE', #751 ) ;
#379 = EDGE_CURVE ( 'NONE', #617, #484, #226, .T. ) ;
#380 = ADVANCED_BREP_SHAPE_REPRESENTATION ( '0ZCH0110AF2E', ( #795, #233, #520, #246, #397 ), #231 ) ;
#381 = LINE ( 'NONE', #368, #177 ) ;
#382 = ORIENTED_EDGE ( 'NONE', *, *, #679, .F. ) ;
#383 = VERTEX_POINT ( 'NONE', #577 ) ;
#384 = ORIENTED_EDGE ( 'NONE', *, *, #645, .F. ) ;
#385 = EDGE_CURVE ( 'NONE', #827, #224, #182, .T. ) ;
#386 = VECTOR ( 'NONE', #43, 1000.000000000000000 ) ;
#387 = MECHANICAL_DESIGN_GEOMETRIC_PRESENTATION_REPRESENTATION (  '', ( #678 ), #370 ) ;
#388 = ORIENTED_EDGE ( 'NONE', *, *, #515, .T. ) ;
#389 = DIRECTION ( 'NONE',  ( 0.000000000000000000, -1.000000000000000000, 0.000000000000000000 ) ) ;
#390 = EDGE_CURVE ( 'NONE', #597, #749, #646, .T. ) ;
#391 = CARTESIAN_POINT ( 'NONE',  ( -1.107499999999999929, 0.000000000000000000, -1.287500000000000089 ) ) ;
#392 = FACE_OUTER_BOUND ( 'NONE', #323, .T. ) ;
#393 = FACE_OUTER_BOUND ( 'NONE', #604, .T. ) ;
#394 = VECTOR ( 'NONE', #100, 1000.000000000000000 ) ;
#395 = PRESENTATION_LAYER_ASSIGNMENT (  '', '', ( #758 ) ) ;
#396 = FACE_OUTER_BOUND ( 'NONE', #817, .T. ) ;
#397 = AXIS2_PLACEMENT_3D ( 'NONE', #686, #610, #423 ) ;
#398 = AXIS2_PLACEMENT_3D ( 'NONE', #335, #591, #201 ) ;
#399 = LINE ( 'NONE', #590, #530 ) ;
#400 = PRESENTATION_STYLE_ASSIGNMENT (( #346 ) ) ;
#401 = ORIENTED_EDGE ( 'NONE', *, *, #589, .T. ) ;
#402 = PLANE ( 'NONE',  #235 ) ;
#403 = LINE ( 'NONE', #269, #652 ) ;
#404 = VERTEX_POINT ( 'NONE', #831 ) ;
#405 = CARTESIAN_POINT ( 'NONE',  ( -1.607499999999999929, 0.9999999999999995559, -0.4000000000000001887 ) ) ;
#406 = MECHANICAL_DESIGN_GEOMETRIC_PRESENTATION_REPRESENTATION (  '', ( #769 ), #637 ) ;
#407 = VECTOR ( 'NONE', #309, 1000.000000000000000 ) ;
#408 = ORIENTED_EDGE ( 'NONE', *, *, #6, .F. ) ;
#409 = DIRECTION ( 'NONE',  ( 1.000000000000000000, 0.000000000000000000, 0.000000000000000000 ) ) ;
#410 = DIRECTION ( 'NONE',  ( -9.773090005503151671E-16, 0.000000000000000000, 1.000000000000000000 ) ) ;
#411 = DIRECTION ( 'NONE',  ( -1.000000000000000000, 0.000000000000000000, 0.000000000000000000 ) ) ;
#412 = ORIENTED_EDGE ( 'NONE', *, *, #524, .T. ) ;
#413 = DIRECTION ( 'NONE',  ( 0.000000000000000000, -1.000000000000000000, 0.000000000000000000 ) ) ;
#414 = ORIENTED_EDGE ( 'NONE', *, *, #724, .F. ) ;
#415 = EDGE_CURVE ( 'NONE', #804, #145, #509, .T. ) ;
#416 = SHAPE_DEFINITION_REPRESENTATION ( #448, #380 ) ;
#417 = LINE ( 'NONE', #146, #624 ) ;
#418 = DIRECTION ( 'NONE',  ( 1.000000000000000000, 0.000000000000000000, 0.000000000000000000 ) ) ;
#419 = ORIENTED_EDGE ( 'NONE', *, *, #228, .F. ) ;
#420 = VECTOR ( 'NONE', #338, 1000.000000000000000 ) ;
#421 = DIRECTION ( 'NONE',  ( 1.348929608069056975E-16, -1.000000000000000000, 0.000000000000000000 ) ) ;
#422 = ORIENTED_EDGE ( 'NONE', *, *, #674, .T. ) ;
#423 = DIRECTION ( 'NONE',  ( 1.000000000000000000, 0.000000000000000000, 0.000000000000000000 ) ) ;
#424 = CARTESIAN_POINT ( 'NONE',  ( -1.607499999999999929, 0.9999999999999995559, 1.287500000000000089 ) ) ;
#425 = LINE ( 'NONE', #307, #573 ) ;
#426 = ORIENTED_EDGE ( 'NONE', *, *, #379, .F. ) ;
#427 = APPLICATION_PROTOCOL_DEFINITION ( 'draft international standard', 'automotive_design', 1998, #799 ) ;
#428 = DIRECTION ( 'NONE',  ( 1.000000000000000000, 0.000000000000000000, 0.000000000000000000 ) ) ;
#429 = ORIENTED_EDGE ( 'NONE', *, *, #104, .F. ) ;
#430 = CARTESIAN_POINT ( 'NONE',  ( -0.8574999999999993738, 0.9999999999999995559, 1.287500000000000089 ) ) ;
#431 = EDGE_CURVE ( 'NONE', #601, #99, #128, .T. ) ;
#432 = ORIENTED_EDGE ( 'NONE', *, *, #178, .T. ) ;
#433 = DIRECTION ( 'NONE',  ( 0.000000000000000000, 0.000000000000000000, 1.000000000000000000 ) ) ;
#434 = VECTOR ( 'NONE', #132, 1000.000000000000000 ) ;
#435 = VECTOR ( 'NONE', #550, 1000.000000000000000 ) ;
#436 = PRODUCT_DEFINITION_FORMATION_WITH_SPECIFIED_SOURCE ( 'ANY', '', #144, .NOT_KNOWN. ) ;
#437 = AXIS2_PLACEMENT_3D ( 'NONE', #808, #230, #556 ) ;
#438 = FACE_OUTER_BOUND ( 'NONE', #508, .T. ) ;
#439 = CARTESIAN_POINT ( 'NONE',  ( -1.107499999999999929, 3.787107458147035199, 1.287500000000000089 ) ) ;
#440 = EDGE_CURVE ( 'NONE', #21, #640, #478, .T. ) ;
#441 = ORIENTED_EDGE ( 'NONE', *, *, #674, .F. ) ;
#442 = DIRECTION ( 'NONE',  ( 1.000000000000000000, 1.348929608069056975E-16, -0.000000000000000000 ) ) ;
#443 = ORIENTED_EDGE ( 'NONE', *, *, #786, .T. ) ;
#444 = ADVANCED_FACE ( 'NONE', ( #334 ), #461, .F. ) ;
#445 = ORIENTED_EDGE ( 'NONE', *, *, #515, .F. ) ;
#446 = PLANE ( 'NONE',  #641 ) ;
#447 = VECTOR ( 'NONE', #618, 1000.000000000000000 ) ;
#448 = PRODUCT_DEFINITION_SHAPE ( 'NONE', 'NONE',  #728 ) ;
#449 = DIRECTION ( 'NONE',  ( 1.000000000000000000, 1.348929608069056975E-16, -0.000000000000000000 ) ) ;
#450 = AXIS2_PLACEMENT_3D ( 'NONE', #451, #709, #138 ) ;
#451 = CARTESIAN_POINT ( 'NONE',  ( -1.760909090909090091, 0.9999999999999995559, -8.673617379884030542E-16 ) ) ;
#452 = AXIS2_PLACEMENT_3D ( 'NONE', #262, #142, #780 ) ;
#453 = LINE ( 'NONE', #683, #175 ) ;
#454 = ADVANCED_FACE ( 'NONE', ( #296 ), #446, .F. ) ;
#455 = ADVANCED_FACE ( 'NONE', ( #393 ), #525, .F. ) ;
#456 = CARTESIAN_POINT ( 'NONE',  ( -0.8574999999999999289, 4.439112532778074716, -1.287500000000000089 ) ) ;
#457 = DIRECTION ( 'NONE',  ( -1.000000000000000000, 0.000000000000000000, 0.000000000000000000 ) ) ;
#458 = CARTESIAN_POINT ( 'NONE',  ( 1.107499999999999929, 0.000000000000000000, 1.287500000000000089 ) ) ;
#459 = FILL_AREA_STYLE_COLOUR ( '', #707 ) ;
#460 = CARTESIAN_POINT ( 'NONE',  ( -1.107499999999999929, 1.000000000000000000, -1.287500000000000089 ) ) ;
#461 = PLANE ( 'NONE',  #829 ) ;
#462 =( NAMED_UNIT ( * ) SI_UNIT ( $, .STERADIAN. ) SOLID_ANGLE_UNIT ( ) );
#463 = ADVANCED_FACE ( 'NONE', ( #661 ), #80, .F. ) ;
#464 = VECTOR ( 'NONE', #526, 1000.000000000000000 ) ;
#465 = VERTEX_POINT ( 'NONE', #511 ) ;
#466 = SURFACE_STYLE_FILL_AREA ( #535 ) ;
#467 = UNCERTAINTY_MEASURE_WITH_UNIT (LENGTH_MEASURE( 1.000000000000000082E-05 ), #349, 'distance_accuracy_value', 'NONE');
#468 = SURFACE_STYLE_USAGE ( .BOTH. , #200 ) ;
#469 = VERTEX_POINT ( 'NONE', #778 ) ;
#470 = EDGE_CURVE ( 'NONE', #705, #163, #518, .T. ) ;
#471 = CARTESIAN_POINT ( 'NONE',  ( 1.107499999999999929, 1.199999999999999956, 1.287500000000000089 ) ) ;
#472 =( LENGTH_UNIT ( ) NAMED_UNIT ( * ) SI_UNIT ( .MILLI., .METRE. ) );
#473 = ORIENTED_EDGE ( 'NONE', *, *, #440, .T. ) ;
#474 = CARTESIAN_POINT ( 'NONE',  ( 1.607499999999999929, 1.000000000000000000, -1.287500000000000089 ) ) ;
#475 = AXIS2_PLACEMENT_3D ( 'NONE', #499, #687, #181 ) ;
#476 = ORIENTED_EDGE ( 'NONE', *, *, #470, .F. ) ;
#477 = VECTOR ( 'NONE', #119, 1000.000000000000000 ) ;
#478 = LINE ( 'NONE', #619, #124 ) ;
#479 = ADVANCED_FACE ( 'NONE', ( #833 ), #576, .F. ) ;
#480 = PLANE ( 'NONE',  #17 ) ;
#481 = ADVANCED_FACE ( 'NONE', ( #721 ), #402, .F. ) ;
#482 = EDGE_LOOP ( 'NONE', ( #685, #814, #140, #367 ) ) ;
#483 = DIRECTION ( 'NONE',  ( 1.000000000000000000, 1.348929608069056975E-16, -0.000000000000000000 ) ) ;
#484 = VERTEX_POINT ( 'NONE', #391 ) ;
#485 = DIRECTION ( 'NONE',  ( 0.000000000000000000, 0.000000000000000000, 1.000000000000000000 ) ) ;
#486 = EDGE_CURVE ( 'NONE', #159, #767, #259, .T. ) ;
#487 = EDGE_LOOP ( 'NONE', ( #324, #1, #789, #46, #60, #115 ) ) ;
#488 = PLANE ( 'NONE',  #70 ) ;
#489 = CIRCLE ( 'NONE', #693, 0.4284090909090910171 ) ;
#490 = VECTOR ( 'NONE', #575, 1000.000000000000000 ) ;
#491 = DIRECTION ( 'NONE',  ( 1.000000000000000000, 0.000000000000000000, 9.773090005503139838E-16 ) ) ;
#492 = EDGE_LOOP ( 'NONE', ( #761, #821, #534, #54 ) ) ;
#493 = PRODUCT_CONTEXT ( 'NONE', #241, 'mechanical' ) ;
#494 = LINE ( 'NONE', #139, #715 ) ;
#495 = EDGE_CURVE ( 'NONE', #156, #601, #328, .T. ) ;
#496 = VERTEX_POINT ( 'NONE', #197 ) ;
#497 = DIRECTION ( 'NONE',  ( 1.348929608069056975E-16, -1.000000000000000000, 0.000000000000000000 ) ) ;
#498 = ORIENTED_EDGE ( 'NONE', *, *, #415, .F. ) ;
#499 = CARTESIAN_POINT ( 'NONE',  ( 1.607499999999999929, 1.199999999999999956, -0.4000000000000000222 ) ) ;
#500 = ORIENTED_EDGE ( 'NONE', *, *, #495, .T. ) ;
#501 = PLANE ( 'NONE',  #254 ) ;
#502 = VERTEX_POINT ( 'NONE', #206 ) ;
#503 = CARTESIAN_POINT ( 'NONE',  ( 1.607499999999999929, 1.000000000000000000, -0.4000000000000003553 ) ) ;
#504 = EDGE_LOOP ( 'NONE', ( #677, #426, #688, #171 ) ) ;
#505 = VECTOR ( 'NONE', #605, 1000.000000000000000 ) ;
#506 = ORIENTED_EDGE ( 'NONE', *, *, #390, .F. ) ;
#507 = DIRECTION ( 'NONE',  ( 0.000000000000000000, 1.000000000000000000, 0.000000000000000000 ) ) ;
#508 = EDGE_LOOP ( 'NONE', ( #75, #291, #412, #310 ) ) ;
#509 = LINE ( 'NONE', #122, #218 ) ;
#510 = ORIENTED_EDGE ( 'NONE', *, *, #202, .T. ) ;
#511 = CARTESIAN_POINT ( 'NONE',  ( 1.607499999999999929, 1.000000000000000000, 0.3999999999999997446 ) ) ;
#512 = DIRECTION ( 'NONE',  ( -0.000000000000000000, -0.000000000000000000, 1.000000000000000000 ) ) ;
#513 = DIRECTION ( 'NONE',  ( -1.000000000000000000, 0.000000000000000000, 0.000000000000000000 ) ) ;
#514 = LINE ( 'NONE', #166, #83 ) ;
#515 = EDGE_CURVE ( 'NONE', #804, #640, #555, .T. ) ;
#516 = CARTESIAN_POINT ( 'NONE',  ( 1.607499999999999929, 1.000000000000000000, 1.287500000000000089 ) ) ;
#517 = VECTOR ( 'NONE', #410, 1000.000000000000000 ) ;
#518 = LINE ( 'NONE', #521, #800 ) ;
#519 = CARTESIAN_POINT ( 'NONE',  ( 1.607499999999999929, 1.000000000000000000, 1.287500000000000089 ) ) ;
#520 = MANIFOLD_SOLID_BREP ( 'NONE', #160 ) ;
#521 = CARTESIAN_POINT ( 'NONE',  ( 1.607499999999999929, 1.000000000000000000, -1.287500000000000089 ) ) ;
#522 = LINE ( 'NONE', #733, #782 ) ;
#523 = UNCERTAINTY_MEASURE_WITH_UNIT (LENGTH_MEASURE( 1.000000000000000082E-05 ), #659, 'distance_accuracy_value', 'NONE');
#524 = EDGE_CURVE ( 'NONE', #145, #613, #399, .T. ) ;
#525 = PLANE ( 'NONE',  #274 ) ;
#526 = DIRECTION ( 'NONE',  ( 0.000000000000000000, -1.000000000000000000, 0.000000000000000000 ) ) ;
#527 = AXIS2_PLACEMENT_3D ( 'NONE', #754, #114, #174 ) ;
#528 = CARTESIAN_POINT ( 'NONE',  ( 1.607499999999999929, 0.000000000000000000, 1.287500000000000089 ) ) ;
#529 = EDGE_CURVE ( 'NONE', #756, #220, #14, .T. ) ;
#530 = VECTOR ( 'NONE', #325, 1000.000000000000000 ) ;
#531 = CARTESIAN_POINT ( 'NONE',  ( -0.8574999999999999289, 4.439112532778074716, 1.287500000000000089 ) ) ;
#532 = DIRECTION ( 'NONE',  ( 1.000000000000000000, 1.348929608069056975E-16, 0.000000000000000000 ) ) ;
#533 = LINE ( 'NONE', #595, #638 ) ;
#534 = ORIENTED_EDGE ( 'NONE', *, *, #244, .T. ) ;
#535 = FILL_AREA_STYLE ('',( #22 ) ) ;
#536 = DIRECTION ( 'NONE',  ( 0.000000000000000000, 0.000000000000000000, 1.000000000000000000 ) ) ;
#537 = ORIENTED_EDGE ( 'NONE', *, *, #724, .T. ) ;
#538 = ADVANCED_FACE ( 'NONE', ( #268 ), #672, .F. ) ;
#539 = PRESENTATION_STYLE_ASSIGNMENT (( #790 ) ) ;
#540 = ADVANCED_FACE ( 'NONE', ( #792 ), #289, .F. ) ;
#541 = CARTESIAN_POINT ( 'NONE',  ( 1.107499999999999929, 0.000000000000000000, -1.287500000000000089 ) ) ;
#542 =( GEOMETRIC_REPRESENTATION_CONTEXT ( 3 ) GLOBAL_UNCERTAINTY_ASSIGNED_CONTEXT ( ( #703 ) ) GLOBAL_UNIT_ASSIGNED_CONTEXT ( ( #472, #271, #147 ) ) REPRESENTATION_CONTEXT ( 'NONE', 'WORKASPACE' ) );
#543 = ORIENTED_EDGE ( 'NONE', *, *, #193, .F. ) ;
#544 = CIRCLE ( 'NONE', #288, 0.4284090909090910171 ) ;
#545 = DIRECTION ( 'NONE',  ( 1.000000000000000000, 1.348929608069056975E-16, -0.000000000000000000 ) ) ;
#546 = ORIENTED_EDGE ( 'NONE', *, *, #125, .T. ) ;
#547 = LINE ( 'NONE', #731, #205 ) ;
#548 = ADVANCED_FACE ( 'NONE', ( #603 ), #219, .F. ) ;
#549 = ORIENTED_EDGE ( 'NONE', *, *, #600, .F. ) ;
#550 = DIRECTION ( 'NONE',  ( -1.000000000000000000, 0.000000000000000000, 4.336808689942025132E-16 ) ) ;
#551 = FACE_OUTER_BOUND ( 'NONE', #358, .T. ) ;
#552 = EDGE_LOOP ( 'NONE', ( #811, #699, #655, #373 ) ) ;
#553 = VECTOR ( 'NONE', #68, 1000.000000000000000 ) ;
#554 = FACE_OUTER_BOUND ( 'NONE', #608, .T. ) ;
#555 = CIRCLE ( 'NONE', #450, 0.4284090909090910726 ) ;
#556 = DIRECTION ( 'NONE',  ( 0.000000000000000000, 1.000000000000000000, 0.000000000000000000 ) ) ;
#557 = CARTESIAN_POINT ( 'NONE',  ( 1.607499999999999929, 1.000000000000000000, -1.287500000000000089 ) ) ;
#558 = ORIENTED_EDGE ( 'NONE', *, *, #803, .F. ) ;
#559 = LINE ( 'NONE', #807, #553 ) ;
#560 = PLANE ( 'NONE',  #109 ) ;
#561 = PLANE ( 'NONE',  #716 ) ;
#562 = ORIENTED_EDGE ( 'NONE', *, *, #786, .F. ) ;
#563 = PLANE ( 'NONE',  #475 ) ;
#564 = EDGE_CURVE ( 'NONE', #697, #159, #547, .T. ) ;
#565 = ORIENTED_EDGE ( 'NONE', *, *, #64, .F. ) ;
#566 = ADVANCED_FACE ( 'NONE', ( #97 ), #480, .F. ) ;
#567 = CARTESIAN_POINT ( 'NONE',  ( -0.8574999999999999289, 0.000000000000000000, -1.287500000000000089 ) ) ;
#568 = ORIENTED_EDGE ( 'NONE', *, *, #293, .T. ) ;
#569 = DIRECTION ( 'NONE',  ( 0.000000000000000000, -1.000000000000000000, 0.000000000000000000 ) ) ;
#570 = AXIS2_PLACEMENT_3D ( 'NONE', #326, #626, #252 ) ;
#571 = STYLED_ITEM ( 'NONE', ( #276 ), #233 ) ;
#572 = ORIENTED_EDGE ( 'NONE', *, *, #116, .T. ) ;
#573 = VECTOR ( 'NONE', #65, 1000.000000000000000 ) ;
#574 = VERTEX_POINT ( 'NONE', #94 ) ;
#575 = DIRECTION ( 'NONE',  ( 0.000000000000000000, -1.000000000000000000, 0.000000000000000000 ) ) ;
#576 = PLANE ( 'NONE',  #452 ) ;
#577 = CARTESIAN_POINT ( 'NONE',  ( 1.607499999999999929, 0.000000000000000000, -1.287500000000000089 ) ) ;
#578 = DIRECTION ( 'NONE',  ( 1.000000000000000000, 1.348929608069056975E-16, -0.000000000000000000 ) ) ;
#579 = DIRECTION ( 'NONE',  ( 0.000000000000000000, -1.000000000000000000, 0.000000000000000000 ) ) ;
#580 = CARTESIAN_POINT ( 'NONE',  ( 1.107499999999999929, 0.000000000000000000, -1.287500000000000089 ) ) ;
#581 = EDGE_CURVE ( 'NONE', #767, #574, #805, .T. ) ;
#582 = DIRECTION ( 'NONE',  ( 0.000000000000000000, -1.000000000000000000, 0.000000000000000000 ) ) ;
#583 = VECTOR ( 'NONE', #157, 1000.000000000000000 ) ;
#584 = DIRECTION ( 'NONE',  ( 0.000000000000000000, 0.000000000000000000, -1.000000000000000000 ) ) ;
#585 = SURFACE_STYLE_USAGE ( .BOTH. , #15 ) ;
#586 = VERTEX_POINT ( 'NONE', #352 ) ;
#587 = FACE_OUTER_BOUND ( 'NONE', #95, .T. ) ;
#588 = DIRECTION ( 'NONE',  ( 0.000000000000000000, 0.000000000000000000, -1.000000000000000000 ) ) ;
#589 = EDGE_CURVE ( 'NONE', #705, #383, #788, .T. ) ;
#590 = CARTESIAN_POINT ( 'NONE',  ( -1.607499999999999929, 1.199999999999999956, 1.287500000000000089 ) ) ;
#591 = DIRECTION ( 'NONE',  ( -1.000000000000000000, 0.000000000000000000, 0.000000000000000000 ) ) ;
#592 = LINE ( 'NONE', #531, #434 ) ;
#593 = CARTESIAN_POINT ( 'NONE',  ( -0.8574999999999999289, 0.000000000000000000, -1.287500000000000089 ) ) ;
#594 = AXIS2_PLACEMENT_3D ( 'NONE', #725, #204, #651 ) ;
#595 = CARTESIAN_POINT ( 'NONE',  ( 1.607499999999999929, 1.000000000000000000, 1.287500000000000089 ) ) ;
#596 = VECTOR ( 'NONE', #449, 1000.000000000000000 ) ;
#597 = VERTEX_POINT ( 'NONE', #357 ) ;
#598 = APPLICATION_PROTOCOL_DEFINITION ( 'draft international standard', 'automotive_design', 1998, #241 ) ;
#599 = DIRECTION ( 'NONE',  ( 0.000000000000000000, 0.000000000000000000, -1.000000000000000000 ) ) ;
#600 = EDGE_CURVE ( 'NONE', #574, #749, #665, .T. ) ;
#601 = VERTEX_POINT ( 'NONE', #541 ) ;
#602 = EDGE_CURVE ( 'NONE', #586, #827, #676, .T. ) ;
#603 = FACE_OUTER_BOUND ( 'NONE', #278, .T. ) ;
#604 = EDGE_LOOP ( 'NONE', ( #348, #498, #267, #105 ) ) ;
#605 = DIRECTION ( 'NONE',  ( 0.000000000000000000, -1.000000000000000000, 0.000000000000000000 ) ) ;
#606 = VECTOR ( 'NONE', #389, 1000.000000000000000 ) ;
#607 = MECHANICAL_DESIGN_GEOMETRIC_PRESENTATION_REPRESENTATION (  '', ( #571 ), #542 ) ;
#608 = EDGE_LOOP ( 'NONE', ( #832, #419, #701, #549 ) ) ;
#609 = AXIS2_PLACEMENT_3D ( 'NONE', #18, #413, #23 ) ;
#610 = DIRECTION ( 'NONE',  ( 0.000000000000000000, 0.000000000000000000, 1.000000000000000000 ) ) ;
#611 = EDGE_CURVE ( 'NONE', #353, #378, #680, .T. ) ;
#612 = CARTESIAN_POINT ( 'NONE',  ( -0.8574999999999999289, 4.439112532778074716, -1.287500000000000089 ) ) ;
#613 = VERTEX_POINT ( 'NONE', #275 ) ;
#614 = CARTESIAN_POINT ( 'NONE',  ( -0.8574999999999993738, 0.9999999999999995559, 1.287500000000000089 ) ) ;
#615 = EDGE_CURVE ( 'NONE', #752, #383, #339, .T. ) ;
#616 = CARTESIAN_POINT ( 'NONE',  ( -1.107499999999999929, 0.9999999999999995559, 1.287500000000000089 ) ) ;
#617 = VERTEX_POINT ( 'NONE', #593 ) ;
#618 = DIRECTION ( 'NONE',  ( 0.000000000000000000, 0.000000000000000000, 1.000000000000000000 ) ) ;
#619 = CARTESIAN_POINT ( 'NONE',  ( -1.607499999999999929, 0.9999999999999995559, -1.287500000000000089 ) ) ;
#620 = CARTESIAN_POINT ( 'NONE',  ( -1.107499999999999041, 0.9999999999999995559, 1.287500000000000089 ) ) ;
#621 = ORIENTED_EDGE ( 'NONE', *, *, #379, .T. ) ;
#622 = PRESENTATION_LAYER_ASSIGNMENT (  '', '', ( #571 ) ) ;
#623 = LINE ( 'NONE', #765, #386 ) ;
#624 = VECTOR ( 'NONE', #545, 1000.000000000000000 ) ;
#625 = DIRECTION ( 'NONE',  ( 0.000000000000000000, -1.000000000000000000, 0.000000000000000000 ) ) ;
#626 = DIRECTION ( 'NONE',  ( 4.336808689942025132E-16, 0.000000000000000000, 1.000000000000000000 ) ) ;
#627 = EDGE_CURVE ( 'NONE', #465, #692, #91, .T. ) ;
#628 = EDGE_LOOP ( 'NONE', ( #476, #441, #565, #568, #258, #236 ) ) ;
#629 = ADVANCED_FACE ( 'NONE', ( #30 ), #221, .T. ) ;
#630 = CARTESIAN_POINT ( 'NONE',  ( -0.8574999999999999289, 0.000000000000000000, 1.287500000000000089 ) ) ;
#631 = DIRECTION ( 'NONE',  ( 1.000000000000000000, 1.348929608069056975E-16, 0.000000000000000000 ) ) ;
#632 = CARTESIAN_POINT ( 'NONE',  ( 1.760909090909090091, 1.199999999999999956, 0.000000000000000000 ) ) ;
#633 = ORIENTED_EDGE ( 'NONE', *, *, #244, .F. ) ;
#634 = FACE_OUTER_BOUND ( 'NONE', #126, .T. ) ;
#635 = LINE ( 'NONE', #187, #596 ) ;
#636 = ORIENTED_EDGE ( 'NONE', *, *, #581, .T. ) ;
#637 =( GEOMETRIC_REPRESENTATION_CONTEXT ( 3 ) GLOBAL_UNCERTAINTY_ASSIGNED_CONTEXT ( ( #238 ) ) GLOBAL_UNIT_ASSIGNED_CONTEXT ( ( #794, #781, #720 ) ) REPRESENTATION_CONTEXT ( 'NONE', 'WORKASPACE' ) );
#638 = VECTOR ( 'NONE', #207, 1000.000000000000000 ) ;
#639 = EDGE_CURVE ( 'NONE', #21, #586, #417, .T. ) ;
#640 = VERTEX_POINT ( 'NONE', #405 ) ;
#641 = AXIS2_PLACEMENT_3D ( 'NONE', #439, #584, #8 ) ;
#642 = ORIENTED_EDGE ( 'NONE', *, *, #679, .T. ) ;
#643 = FACE_OUTER_BOUND ( 'NONE', #492, .T. ) ;
#644 = DIRECTION ( 'NONE',  ( 1.000000000000000000, 0.000000000000000000, -9.773090005503129977E-16 ) ) ;
#645 = EDGE_CURVE ( 'NONE', #697, #597, #280, .T. ) ;
#646 = LINE ( 'NONE', #755, #760 ) ;
#647 = DIRECTION ( 'NONE',  ( 0.000000000000000000, -1.000000000000000000, 0.000000000000000000 ) ) ;
#648 = FILL_AREA_STYLE ('',( #459 ) ) ;
#649 = LINE ( 'NONE', #164, #435 ) ;
#650 = ORIENTED_EDGE ( 'NONE', *, *, #803, .T. ) ;
#651 = DIRECTION ( 'NONE',  ( 1.000000000000000000, 0.000000000000000000, 0.000000000000000000 ) ) ;
#652 = VECTOR ( 'NONE', #411, 1000.000000000000000 ) ;
#653 = VECTOR ( 'NONE', #726, 1000.000000000000000 ) ;
#654 =( NAMED_UNIT ( * ) PLANE_ANGLE_UNIT ( ) SI_UNIT ( $, .RADIAN. ) );
#655 = ORIENTED_EDGE ( 'NONE', *, *, #158, .T. ) ;
#656 = CARTESIAN_POINT ( 'NONE',  ( -0.8574999999999999289, 3.787107458147035199, 1.287500000000000089 ) ) ;
#657 = DIRECTION ( 'NONE',  ( 1.000000000000000000, 1.348929608069056975E-16, 0.000000000000000000 ) ) ;
#658 = LINE ( 'NONE', #79, #420 ) ;
#659 =( LENGTH_UNIT ( ) NAMED_UNIT ( * ) SI_UNIT ( .MILLI., .METRE. ) );
#660 = FACE_OUTER_BOUND ( 'NONE', #101, .T. ) ;
#661 = FACE_OUTER_BOUND ( 'NONE', #793, .T. ) ;
#662 = CARTESIAN_POINT ( 'NONE',  ( -1.107499999999999929, 0.000000000000000000, 1.287500000000000089 ) ) ;
#663 = ORIENTED_EDGE ( 'NONE', *, *, #390, .T. ) ;
#664 = EDGE_CURVE ( 'NONE', #484, #93, #345, .T. ) ;
#665 = LINE ( 'NONE', #350, #40 ) ;
#666 = AXIS2_PLACEMENT_3D ( 'NONE', #691, #372, #418 ) ;
#667 = FILL_AREA_STYLE ('',( #198 ) ) ;
#668 = ORIENTED_EDGE ( 'NONE', *, *, #158, .F. ) ;
#669 = CARTESIAN_POINT ( 'NONE',  ( -1.607499999999999929, 0.000000000000000000, -1.287500000000000089 ) ) ;
#670 = CARTESIAN_POINT ( 'NONE',  ( 1.607499999999999929, 0.000000000000000000, -0.4000000000000000222 ) ) ;
#671 = ORIENTED_EDGE ( 'NONE', *, *, #564, .T. ) ;
#672 = PLANE ( 'NONE',  #320 ) ;
#673 = DIRECTION ( 'NONE',  ( 0.000000000000000000, 0.000000000000000000, -1.000000000000000000 ) ) ;
#674 = EDGE_CURVE ( 'NONE', #156, #705, #825, .T. ) ;
#675 = ORIENTED_EDGE ( 'NONE', *, *, #602, .T. ) ;
#676 = LINE ( 'NONE', #211, #137 ) ;
#677 = ORIENTED_EDGE ( 'NONE', *, *, #664, .F. ) ;
#678 = STYLED_ITEM ( 'NONE', ( #130 ), #520 ) ;
#679 = EDGE_CURVE ( 'NONE', #378, #183, #544, .T. ) ;
#680 = LINE ( 'NONE', #152, #517 ) ;
#681 = VERTEX_POINT ( 'NONE', #620 ) ;
#682 = CARTESIAN_POINT ( 'NONE',  ( 1.107500000000000151, 1.000000000000000000, -1.287500000000000089 ) ) ;
#683 = CARTESIAN_POINT ( 'NONE',  ( -1.107499999999999929, 3.787107458147035199, 1.287500000000000089 ) ) ;
#684 = LINE ( 'NONE', #616, #329 ) ;
#685 = ORIENTED_EDGE ( 'NONE', *, *, #76, .F. ) ;
#686 = CARTESIAN_POINT ( 'NONE',  ( 0.000000000000000000, 0.000000000000000000, 0.000000000000000000 ) ) ;
#687 = DIRECTION ( 'NONE',  ( -1.000000000000000000, 0.000000000000000000, 0.000000000000000000 ) ) ;
#688 = ORIENTED_EDGE ( 'NONE', *, *, #125, .F. ) ;
#689 = CARTESIAN_POINT ( 'NONE',  ( 1.107499999999999929, 0.000000000000000000, 1.287500000000000089 ) ) ;
#690 = ADVANCED_FACE ( 'NONE', ( #696 ), #501, .F. ) ;
#691 = CARTESIAN_POINT ( 'NONE',  ( 1.760909090909090091, 0.000000000000000000, 0.000000000000000000 ) ) ;
#692 = VERTEX_POINT ( 'NONE', #519 ) ;
#693 = AXIS2_PLACEMENT_3D ( 'NONE', #759, #306, #433 ) ;
#694 = CARTESIAN_POINT ( 'NONE',  ( -1.107499999999999929, 0.000000000000000000, 1.287500000000000089 ) ) ;
#695 = ORIENTED_EDGE ( 'NONE', *, *, #627, .T. ) ;
#696 = FACE_OUTER_BOUND ( 'NONE', #552, .T. ) ;
#697 = VERTEX_POINT ( 'NONE', #430 ) ;
#698 = CARTESIAN_POINT ( 'NONE',  ( -1.607499999999999929, 1.199999999999999956, -1.287500000000000089 ) ) ;
#699 = ORIENTED_EDGE ( 'NONE', *, *, #440, .F. ) ;
#700 = CARTESIAN_POINT ( 'NONE',  ( -1.107499999999999929, 1.199999999999999956, 1.287500000000000089 ) ) ;
#701 = ORIENTED_EDGE ( 'NONE', *, *, #116, .F. ) ;
#702 = EDGE_CURVE ( 'NONE', #183, #613, #425, .T. ) ;
#703 = UNCERTAINTY_MEASURE_WITH_UNIT (LENGTH_MEASURE( 1.000000000000000082E-05 ), #472, 'distance_accuracy_value', 'NONE');
#704 = COLOUR_RGB ( '',0.7921568627450980005, 0.8196078431372548767, 0.9333333333333333481 ) ;
#705 = VERTEX_POINT ( 'NONE', #45 ) ;
#706 = ADVANCED_FACE ( 'NONE', ( #240 ), #561, .T. ) ;
#707 = COLOUR_RGB ( '',0.2509803921568627416, 0.2509803921568627416, 0.2509803921568627416 ) ;
#708 = CARTESIAN_POINT ( 'NONE',  ( 0.000000000000000000, 0.000000000000000000, 0.000000000000000000 ) ) ;
#709 = DIRECTION ( 'NONE',  ( -1.348929608069056975E-16, 1.000000000000000000, -0.000000000000000000 ) ) ;
#710 = DIRECTION ( 'NONE',  ( 0.000000000000000000, 0.000000000000000000, 1.000000000000000000 ) ) ;
#711 = EDGE_CURVE ( 'NONE', #640, #378, #38, .T. ) ;
#712 = DIRECTION ( 'NONE',  ( 0.000000000000000000, -1.000000000000000000, 0.000000000000000000 ) ) ;
#713 = ADVANCED_FACE ( 'NONE', ( #363 ), #775, .F. ) ;
#714 = PRESENTATION_LAYER_ASSIGNMENT (  '', '', ( #341 ) ) ;
#715 = VECTOR ( 'NONE', #19, 1000.000000000000000 ) ;
#716 = AXIS2_PLACEMENT_3D ( 'NONE', #708, #582, #311 ) ;
#717 =( NAMED_UNIT ( * ) SI_UNIT ( $, .STERADIAN. ) SOLID_ANGLE_UNIT ( ) );
#718 = DIRECTION ( 'NONE',  ( 0.000000000000000000, 0.000000000000000000, 1.000000000000000000 ) ) ;
#719 =( NAMED_UNIT ( * ) PLANE_ANGLE_UNIT ( ) SI_UNIT ( $, .RADIAN. ) );
#720 =( NAMED_UNIT ( * ) SI_UNIT ( $, .STERADIAN. ) SOLID_ANGLE_UNIT ( ) );
#721 = FACE_OUTER_BOUND ( 'NONE', #764, .T. ) ;
#722 = CARTESIAN_POINT ( 'NONE',  ( 1.107499999999999929, 1.199999999999999956, 1.287500000000000089 ) ) ;
#723 = ORIENTED_EDGE ( 'NONE', *, *, #92, .T. ) ;
#724 = EDGE_CURVE ( 'NONE', #159, #502, #129, .T. ) ;
#725 = CARTESIAN_POINT ( 'NONE',  ( -1.607499999999999929, 1.199999999999999956, -1.287500000000000089 ) ) ;
#726 = DIRECTION ( 'NONE',  ( -0.000000000000000000, -0.000000000000000000, 1.000000000000000000 ) ) ;
#727 = ORIENTED_EDGE ( 'NONE', *, *, #277, .T. ) ;
#728 = PRODUCT_DEFINITION ( 'UNKNOWN', '', #436, #333 ) ;
#729 = CARTESIAN_POINT ( 'NONE',  ( -1.607499999999999929, 0.000000000000000000, 1.287500000000000089 ) ) ;
#730 = VECTOR ( 'NONE', #264, 1000.000000000000000 ) ;
#731 = CARTESIAN_POINT ( 'NONE',  ( -0.8574999999999999289, 0.9999999999999995559, 1.287500000000000089 ) ) ;
#732 = VECTOR ( 'NONE', #483, 1000.000000000000000 ) ;
#733 = CARTESIAN_POINT ( 'NONE',  ( 1.607499999999999929, 1.199999999999999956, 0.4000000000000000222 ) ) ;
#734 = ORIENTED_EDGE ( 'NONE', *, *, #222, .T. ) ;
#735 = DIRECTION ( 'NONE',  ( 0.000000000000000000, 0.000000000000000000, 1.000000000000000000 ) ) ;
#736 = ORIENTED_EDGE ( 'NONE', *, *, #92, .F. ) ;
#737 = CARTESIAN_POINT ( 'NONE',  ( -1.107499999999999929, 0.000000000000000000, 1.287500000000000089 ) ) ;
#738 = ORIENTED_EDGE ( 'NONE', *, *, #315, .F. ) ;
#739 = ADVANCED_FACE ( 'NONE', ( #438 ), #745, .F. ) ;
#740 = DIRECTION ( 'NONE',  ( 4.336808689942025132E-16, 0.000000000000000000, -1.000000000000000000 ) ) ;
#741 = MECHANICAL_DESIGN_GEOMETRIC_PRESENTATION_REPRESENTATION (  '', ( #758 ), #123 ) ;
#742 = ORIENTED_EDGE ( 'NONE', *, *, #431, .T. ) ;
#743 = VECTOR ( 'NONE', #718, 1000.000000000000000 ) ;
#744 = CARTESIAN_POINT ( 'NONE',  ( -0.8574999999999999289, 4.439112532778074716, 1.287500000000000089 ) ) ;
#745 = PLANE ( 'NONE',  #757 ) ;
#746 = ORIENTED_EDGE ( 'NONE', *, *, #639, .F. ) ;
#747 = FACE_OUTER_BOUND ( 'NONE', #628, .T. ) ;
#748 = EDGE_CURVE ( 'NONE', #99, #295, #820, .T. ) ;
#749 = VERTEX_POINT ( 'NONE', #689 ) ;
#750 = LINE ( 'NONE', #35, #606 ) ;
#751 = CARTESIAN_POINT ( 'NONE',  ( -1.607499999999999929, 0.000000000000000000, -0.4000000000000000222 ) ) ;
#752 = VERTEX_POINT ( 'NONE', #371 ) ;
#753 = LINE ( 'NONE', #117, #189 ) ;
#754 = CARTESIAN_POINT ( 'NONE',  ( -1.760909090909090091, 1.199999999999999956, -8.673617379884030542E-16 ) ) ;
#755 = CARTESIAN_POINT ( 'NONE',  ( 1.107499999999999929, 4.439112532778074716, 1.287500000000000089 ) ) ;
#756 = VERTEX_POINT ( 'NONE', #614 ) ;
#757 = AXIS2_PLACEMENT_3D ( 'NONE', #359, #375, #103 ) ;
#758 = STYLED_ITEM ( 'NONE', ( #400 ), #246 ) ;
#759 = CARTESIAN_POINT ( 'NONE',  ( 1.760909090909090091, 0.000000000000000000, 0.000000000000000000 ) ) ;
#760 = VECTOR ( 'NONE', #63, 1000.000000000000000 ) ;
#761 = ORIENTED_EDGE ( 'NONE', *, *, #284, .F. ) ;
#762 = CARTESIAN_POINT ( 'NONE',  ( -1.107499999999999929, 0.000000000000000000, -1.287500000000000089 ) ) ;
#763 = ADVANCED_FACE ( 'NONE', ( #234 ), #815, .F. ) ;
#764 = EDGE_LOOP ( 'NONE', ( #414, #184, #766, #32 ) ) ;
#765 = CARTESIAN_POINT ( 'NONE',  ( -1.107499999999999929, 0.000000000000000000, 1.287500000000000089 ) ) ;
#766 = ORIENTED_EDGE ( 'NONE', *, *, #645, .T. ) ;
#767 = VERTEX_POINT ( 'NONE', #567 ) ;
#768 = CARTESIAN_POINT ( 'NONE',  ( 1.107499999999999929, 1.199999999999999956, -1.287500000000000089 ) ) ;
#769 = STYLED_ITEM ( 'NONE', ( #539 ), #380 ) ;
#770 = VECTOR ( 'NONE', #374, 1000.000000000000000 ) ;
#771 = DIRECTION ( 'NONE',  ( 0.000000000000000000, -1.000000000000000000, 0.000000000000000000 ) ) ;
#772 = VECTOR ( 'NONE', #536, 1000.000000000000000 ) ;
#773 = LINE ( 'NONE', #516, #354 ) ;
#774 = DIRECTION ( 'NONE',  ( 1.000000000000000000, 0.000000000000000000, 0.000000000000000000 ) ) ;
#775 = CYLINDRICAL_SURFACE ( 'NONE', #527, 0.4284090909090910171 ) ;
#776 = EDGE_CURVE ( 'NONE', #502, #404, #750, .T. ) ;
#777 = ADVANCED_FACE ( 'NONE', ( #551 ), #809, .F. ) ;
#778 = CARTESIAN_POINT ( 'NONE',  ( 1.107500000000000151, 1.000000000000000000, 1.287500000000000089 ) ) ;
#779 = CARTESIAN_POINT ( 'NONE',  ( -1.607499999999999929, 0.9999999999999995559, 0.3999999999999990785 ) ) ;
#780 = DIRECTION ( 'NONE',  ( 0.000000000000000000, 1.000000000000000000, 0.000000000000000000 ) ) ;
#781 =( NAMED_UNIT ( * ) PLANE_ANGLE_UNIT ( ) SI_UNIT ( $, .RADIAN. ) );
#782 = VECTOR ( 'NONE', #712, 1000.000000000000000 ) ;
#783 = VECTOR ( 'NONE', #48, 1000.000000000000000 ) ;
#784 = CARTESIAN_POINT ( 'NONE',  ( -1.107499999999999929, 3.787107458147035199, -1.287500000000000089 ) ) ;
#785 = SURFACE_STYLE_FILL_AREA ( #667 ) ;
#786 = EDGE_CURVE ( 'NONE', #586, #496, #514, .T. ) ;
#787 = EDGE_LOOP ( 'NONE', ( #408, #388, #308, #642 ) ) ;
#788 = LINE ( 'NONE', #802, #505 ) ;
#789 = ORIENTED_EDGE ( 'NONE', *, *, #53, .F. ) ;
#790 = SURFACE_STYLE_USAGE ( .BOTH. , #90 ) ;
#791 = EDGE_CURVE ( 'NONE', #681, #93, #453, .T. ) ;
#792 = FACE_OUTER_BOUND ( 'NONE', #482, .T. ) ;
#793 = EDGE_LOOP ( 'NONE', ( #429, #282, #727, #621 ) ) ;
#794 =( LENGTH_UNIT ( ) NAMED_UNIT ( * ) SI_UNIT ( .MILLI., .METRE. ) );
#795 = MANIFOLD_SOLID_BREP ( 'NONE', #319 ) ;
#796 =( GEOMETRIC_REPRESENTATION_CONTEXT ( 3 ) GLOBAL_UNCERTAINTY_ASSIGNED_CONTEXT ( ( #523 ) ) GLOBAL_UNIT_ASSIGNED_CONTEXT ( ( #659, #279, #150 ) ) REPRESENTATION_CONTEXT ( 'NONE', 'WORKASPACE' ) );
#797 = AXIS2_PLACEMENT_3D ( 'NONE', #828, #172, #256 ) ;
#798 = CARTESIAN_POINT ( 'NONE',  ( 1.107499999999999929, 4.439112532778074716, 1.287500000000000089 ) ) ;
#799 = APPLICATION_CONTEXT ( 'automotive_design' ) ;
#800 = VECTOR ( 'NONE', #188, 1000.000000000000000 ) ;
#801 = ORIENTED_EDGE ( 'NONE', *, *, #104, .T. ) ;
#802 = CARTESIAN_POINT ( 'NONE',  ( 1.607499999999999929, 1.199999999999999956, -1.287500000000000089 ) ) ;
#803 = EDGE_CURVE ( 'NONE', #697, #574, #592, .T. ) ;
#804 = VERTEX_POINT ( 'NONE', #779 ) ;
#805 = LINE ( 'NONE', #155, #772 ) ;
#806 = ORIENTED_EDGE ( 'NONE', *, *, #615, .T. ) ;
#807 = CARTESIAN_POINT ( 'NONE',  ( 1.107499999999999929, 1.000000000000000000, -1.287500000000000089 ) ) ;
#808 = CARTESIAN_POINT ( 'NONE',  ( -1.107499999999999929, 3.787107458147035199, 1.287500000000000089 ) ) ;
#809 = PLANE ( 'NONE',  #570 ) ;
#810 = VECTOR ( 'NONE', #102, 1000.000000000000000 ) ;
#811 = ORIENTED_EDGE ( 'NONE', *, *, #711, .F. ) ;
#812 = VECTOR ( 'NONE', #409, 1000.000000000000000 ) ;
#813 = CARTESIAN_POINT ( 'NONE',  ( 1.107499999999999929, 1.000000000000000000, 1.287500000000000089 ) ) ;
#814 = ORIENTED_EDGE ( 'NONE', *, *, #355, .F. ) ;
#815 = PLANE ( 'NONE',  #29 ) ;
#816 = DIRECTION ( 'NONE',  ( 1.000000000000000000, 0.000000000000000000, 0.000000000000000000 ) ) ;
#817 = EDGE_LOOP ( 'NONE', ( #562, #675, #239, #10 ) ) ;
#818 = CARTESIAN_POINT ( 'NONE',  ( -1.607499999999999929, 0.000000000000000000, -1.287500000000000089 ) ) ;
#819 = CARTESIAN_POINT ( 'NONE',  ( 1.607499999999999929, 1.199999999999999956, 1.287500000000000089 ) ) ;
#820 = LINE ( 'NONE', #458, #394 ) ;
#821 = ORIENTED_EDGE ( 'NONE', *, *, #365, .T. ) ;
#822 = DIRECTION ( 'NONE',  ( 0.000000000000000000, 0.000000000000000000, -1.000000000000000000 ) ) ;
#823 = ADVANCED_FACE ( 'NONE', ( #587 ), #336, .F. ) ;
#824 = VERTEX_POINT ( 'NONE', #460 ) ;
#825 = LINE ( 'NONE', #170, #72 ) ;
#826 = LINE ( 'NONE', #762, #190 ) ;
#827 = VERTEX_POINT ( 'NONE', #273 ) ;
#828 = CARTESIAN_POINT ( 'NONE',  ( 1.607499999999999929, 1.000000000000000000, -1.287500000000000089 ) ) ;
#829 = AXIS2_PLACEMENT_3D ( 'NONE', #656, #513, #148 ) ;
#830 = ORIENTED_EDGE ( 'NONE', *, *, #153, .T. ) ;
#831 = CARTESIAN_POINT ( 'NONE',  ( 1.107499999999999929, 0.000000000000000000, -1.287500000000000089 ) ) ;
#832 = ORIENTED_EDGE ( 'NONE', *, *, #581, .F. ) ;
#833 = FACE_OUTER_BOUND ( 'NONE', #173, .T. ) ;
ENDSEC;
END-ISO-10303-21;
